<?xml version="1.0" encoding="UTF-8"?>
<svg version="1.1" xmlns="http://www.w3.org/2000/svg" width="2000" height="2000">
<path d="M0 0 C660 0 1320 0 2000 0 C2000 660 2000 1320 2000 2000 C1340 2000 680 2000 0 2000 C0 1340 0 680 0 0 Z " fill="#000000" transform="translate(0,0)"/>
<path d="M0 0 C45.85731156 -0.03427771 91.71462433 -0.06611352 137.57194519 -0.08468628 C138.25194036 -0.08496239 138.93193552 -0.08523851 139.63253661 -0.08552299 C154.41490331 -0.09151047 169.19727015 -0.09705059 183.97963719 -0.10213066 C191.23015855 -0.10462507 198.48067987 -0.10721822 205.73120117 -0.10986328 C206.45266938 -0.1101248 207.1741376 -0.11038632 207.91746848 -0.11065576 C231.25212721 -0.11916031 254.58677618 -0.13416928 277.92142902 -0.15259444 C301.92472002 -0.17151289 325.92800563 -0.18378319 349.93130396 -0.18782998 C353.33088303 -0.18840619 356.73046208 -0.18905746 360.13004112 -0.18975449 C360.79904868 -0.18988933 361.46805625 -0.19002418 362.15733676 -0.19016311 C373.53408167 -0.19266029 384.91080634 -0.20327742 396.28754421 -0.21583293 C406.43430307 -0.22645631 416.58104755 -0.22958858 426.72781155 -0.22700275 C432.57001936 -0.22572975 438.41217837 -0.22759352 444.25437737 -0.23841095 C473.18216289 -0.2891781 501.19748948 0.79972105 530 4 C530 23.47 530 42.94 530 63 C547.70904791 62.92127436 547.70904791 62.92127436 565.41796875 62.81982422 C603.72599458 62.67338707 603.72599458 62.67338707 612 68 C613.8832563 72.49729821 614.24902815 76.35646294 614.24609566 81.2038784 C614.24840335 81.90978817 614.25071103 82.61569795 614.25308865 83.34299892 C614.25838223 85.70828408 614.24940999 88.07329693 614.24050903 90.43856812 C614.24138123 92.15141445 614.24313248 93.86426052 614.24568737 95.57710516 C614.25016208 100.28383477 614.24215547 104.99047346 614.23213124 109.69719148 C614.22350086 114.77279804 614.22641661 119.8483994 614.22793579 124.92401123 C614.2289849 133.71785066 614.22270555 142.51166043 614.21146011 151.3054924 C614.19521164 164.01992132 614.18999777 176.73433588 614.18748413 189.44877405 C614.183106 210.07669735 614.1697937 230.70460483 614.15087891 251.33251953 C614.13252316 271.37158123 614.11836516 291.41063863 614.10986328 311.44970703 C614.10907511 313.30226677 614.10907511 313.30226677 614.10827102 315.19225197 C614.10566096 321.38803363 614.10313354 327.58381533 614.10064721 333.77959704 C614.07991105 385.18640896 614.04468231 436.59320371 614 488 C612.55893409 488.48695611 611.11729499 488.97221619 609.67541504 489.45675659 C608.87266396 489.72716703 608.06991287 489.99757748 607.242836 490.27618217 C604.7949301 491.06618105 602.37149445 491.65846644 599.84375 492.1328125 C598.96589844 492.29910156 598.08804688 492.46539063 597.18359375 492.63671875 C596.29800781 492.79785156 595.41242187 492.95898438 594.5 493.125 C593.61441406 493.29386719 592.72882812 493.46273438 591.81640625 493.63671875 C583.12115412 495.25830028 574.65574511 496.15584364 565.80859375 496.09765625 C564.97787857 496.0962413 564.14716339 496.09482635 563.29127502 496.09336853 C560.67331125 496.0878317 558.05543733 496.07529162 555.4375 496.0625 C553.64778771 496.05747681 551.85807405 496.05291535 550.06835938 496.04882812 C545.71220567 496.03788308 541.356118 496.02066319 537 496 C538.15540283 496.62342285 539.31080566 497.2468457 540.5012207 497.88916016 C564.1361501 510.67981179 586.52538802 525.56355625 607 543 C607.57343909 543.36564589 608.14687817 543.73129179 608.7376942 544.10801786 C611.73227597 546.19961677 613.68398748 547.81630056 614.64682114 551.42282116 C614.89016301 554.48318366 614.90872764 557.4757678 614.85523987 560.54554749 C614.86263197 561.71504218 614.87002408 562.88453688 614.87764019 564.0894708 C614.89103555 567.32781572 614.87308222 570.56422825 614.84177744 573.80239356 C614.81563088 577.2973313 614.82995476 580.79213409 614.83924866 584.28712463 C614.85110286 591.13026889 614.82581546 597.97279748 614.78823508 604.81582911 C614.74599449 612.78416358 614.74167072 620.7523827 614.73921572 628.72081225 C614.73365191 642.93746239 614.69537579 657.15383394 614.63793945 671.37036133 C614.58224317 685.16692746 614.54683397 698.96333423 614.53540039 712.76000977 C614.53469213 713.60988714 614.53398387 714.45976452 614.53325415 715.33539576 C614.53184492 717.04748371 614.53044052 718.75957167 614.52904099 720.47165963 C614.52835029 721.31621147 614.5276596 722.16076331 614.52694798 723.03090763 C614.52626954 723.87332107 614.52559111 724.71573451 614.52489213 725.58367563 C614.51365847 738.73022189 614.48667195 751.87674201 614.45691963 765.02325778 C614.44798801 768.99513709 614.43980458 772.96701518 614.43330884 776.93889928 C614.41956891 785.29069452 614.40054772 793.64240372 614.36359514 801.99413259 C614.34839652 805.44788397 614.3362409 808.90156964 614.33261871 812.35535431 C614.32690035 816.09748837 614.30891256 819.83936306 614.28761292 823.58143616 C614.28866376 824.67559044 614.2897146 825.76974473 614.29079729 826.89705521 C614.27834881 828.40081448 614.27834881 828.40081448 614.26564884 829.93495274 C614.26261377 830.79860181 614.25957871 831.66225089 614.25645167 832.55207115 C613.96685008 835.31642864 613.13693364 837.4756682 612 840 C608.51892025 836.79009582 605.95523593 833.18502774 603.37890625 829.24609375 C602.70761688 828.23289818 602.70761688 828.23289818 602.02276611 827.19923401 C601.04734482 825.72617404 600.07398699 824.2517461 599.10244751 822.77612305 C596.41653494 818.69719373 593.71517432 814.62850518 591.015625 810.55859375 C590.44556229 809.69833588 589.87549957 808.838078 589.28816223 807.95175171 C583.45417427 799.1569222 577.54033787 790.41673369 571.62423706 781.67703247 C560.53086151 765.28540081 549.57044571 748.81227094 538.70599365 732.26812744 C526.56829067 713.79106094 514.22031469 695.45993377 501.82803345 677.15298462 C497.71742511 671.07496832 493.64248643 664.97386065 489.57829285 658.86474609 C483.96194235 650.42874715 478.28679862 642.03254559 472.61398315 633.63446045 C464.01653837 620.90671192 455.42598984 608.17573263 446.9375 595.375 C441.68458996 587.46025833 436.29499724 579.65949801 430.78515625 571.921875 C424.31743772 562.83696574 418.05718426 553.61355533 411.90454102 544.31298828 C399.71757602 525.90463534 387.06268057 508.18981993 372 492 C371.24203125 491.1646875 370.4840625 490.329375 369.703125 489.46875 C361.82450724 481.12668414 352.92599921 474.64199974 342 471 C342 466.38 342 461.76 342 457 C343.25321045 456.98018066 344.5064209 456.96036133 345.79760742 456.93994141 C350.55607473 456.86246414 355.3142909 456.77399896 360.07250977 456.68261719 C362.11152096 456.64490211 364.15058584 456.6099628 366.18969727 456.578125 C384.29890717 456.29216659 402.45570354 455.68597086 420.1875 451.6875 C421.19248535 451.46731201 422.1974707 451.24712402 423.23291016 451.02026367 C426.16045995 450.36723788 429.08098029 449.69005357 432 449 C432.78938965 448.81598633 433.5787793 448.63197266 434.39208984 448.44238281 C465.962057 440.90682039 497.85159734 427.07321839 521.44921875 404.41015625 C524 402 524 402 526.56640625 399.9921875 C543.6131301 386.03740554 554.58926771 362.53174976 562.12890625 342.33349609 C562.88190896 340.31634365 563.65762181 338.30769606 564.4375 336.30078125 C568.83518842 324.24836641 570.92351412 311.62231692 573 299 C573.16806152 297.99662598 573.33612305 296.99325195 573.50927734 295.95947266 C582.39703469 240.50539287 576.04116984 177.07239447 542.81982422 130.33984375 C535.21953637 119.93659147 526.97622134 110.19358507 517 102 C515.95572073 101.10808279 514.91145069 100.21615478 513.8671875 99.32421875 C485.8173012 75.74610991 451.37783502 61.62870628 414.89892578 58.91259766 C413.7702112 58.82774927 412.64149662 58.74290089 411.47857857 58.65548134 C399.62998779 57.82096127 387.80327029 57.64960585 375.9296875 57.5859375 C373.65755571 57.56715114 371.38543035 57.54757273 369.11331177 57.5272522 C363.23152523 57.47671149 357.34971625 57.43667703 351.46783447 57.39910889 C345.42642024 57.35856937 339.38509291 57.30770951 333.34375 57.2578125 C321.56256174 57.16198226 309.78132349 57.0772915 298 57 C298.04397483 130.67439932 298.09164814 204.34879599 298.15898132 278.0231781 C298.15997689 279.11365384 298.16097246 280.20412958 298.16199819 281.32765004 C298.18365694 305.02686052 298.20597964 328.72607032 298.22898628 352.42527953 C298.24026476 364.04743559 298.25139652 375.66959178 298.26245117 387.29174805 C298.26355374 388.44828975 298.2646563 389.60483145 298.26579228 390.79641987 C298.30145818 428.28047216 298.32743684 465.76452355 298.34838969 503.2485867 C298.36997338 541.76965493 298.40133458 580.29070312 298.44499113 618.81175295 C298.45115334 624.25309721 298.45720382 629.69444159 298.46318626 635.13578606 C298.46495759 636.74218147 298.46495759 636.74218147 298.46676469 638.38102932 C298.48548317 655.61717341 298.49390045 672.85330785 298.49846124 690.08946086 C298.50326682 707.41934857 298.51893508 724.74919954 298.54566566 742.07906754 C298.56121559 752.37390727 298.56846249 762.66867453 298.56376929 772.96352536 C298.56145371 779.84493833 298.57001666 786.72628293 298.58732411 793.60767436 C298.59687007 797.52575221 298.60178204 801.44367895 298.59339563 805.36176295 C298.5858419 808.9345744 298.59232004 812.50708977 298.60944067 816.07986568 C298.61495128 817.9529714 298.60598395 819.82610323 298.59621885 821.6991916 C298.67819941 833.17713326 300.31693586 844.83996303 305.25 855.3125 C305.55373535 855.97781738 305.8574707 856.64313477 306.17041016 857.32861328 C316.01279535 878.2367023 334.21535306 893.87760394 355.63671875 901.9921875 C365.42095454 904.9240491 374.98600664 905.40144847 385.125 905.625 C386.57293772 905.66327434 388.02085497 905.70233118 389.46875 905.7421875 C392.97904721 905.8385801 396.48918278 905.91894833 400 906 C400 910.62 400 915.24 400 920 C268 920 136 920 0 920 C0 915.38 0 910.76 0 906 C2.06121094 905.95101562 4.12242187 905.90203125 6.24609375 905.8515625 C8.27174585 905.79587447 10.29739668 905.74012117 12.32299805 905.68261719 C13.71647073 905.64464703 15.11003081 905.6097423 16.50366211 905.578125 C24.18341022 905.40176911 31.57806105 905.1405781 39 903 C39.99386719 902.73960937 40.98773438 902.47921875 42.01171875 902.2109375 C64.08223108 895.31591613 81.24928919 880.01955722 92.171875 859.8125 C95.34315519 853.5358706 97.18731115 846.76840901 99 840 C99.27170877 839.06851114 99.27170877 839.06851114 99.54890661 838.11820432 C100.08510128 835.60038894 100.12622701 833.28555938 100.1276505 830.71029341 C100.13066647 829.62982849 100.13368244 828.54936357 100.1367898 827.43615729 C100.13413559 825.65303354 100.13413559 825.65303354 100.13142776 823.8338871 C100.13450672 821.93383517 100.13450672 821.93383517 100.13764787 819.99539834 C100.14322494 816.46137481 100.1425402 812.92737546 100.14087028 809.39334893 C100.14014053 805.55525099 100.14515897 801.71715994 100.1494453 797.87906492 C100.15703456 790.25840771 100.15921883 782.6377575 100.15977435 775.0170969 C100.16068709 765.89218529 100.16735204 756.76728018 100.17412117 747.64237137 C100.19019384 725.58397716 100.19608613 703.52558364 100.20086992 681.46718464 C100.20320486 671.03332831 100.20680742 660.59947252 100.2105653 650.16561662 C100.22340265 614.45483629 100.23412111 578.74405628 100.2375679 543.0332737 C100.23778953 540.7908029 100.23801132 538.54833211 100.23823325 536.30586132 C100.23845389 534.05793994 100.23867438 531.81001857 100.2388947 529.56209719 C100.23933726 525.05230308 100.23978437 520.54250896 100.24023438 516.03271484 C100.24034377 514.914545 100.24045316 513.79637515 100.24056586 512.64432137 C100.244196 476.39254418 100.26011349 440.140787 100.28342474 403.88901748 C100.30802085 365.56910187 100.32174067 327.2491977 100.32293582 288.92927396 C100.32310728 284.72252679 100.3233227 280.51577961 100.32357025 276.30903244 C100.32362602 275.2731995 100.32368179 274.23736657 100.32373925 273.17014475 C100.32488997 256.49935265 100.33591393 239.82858106 100.35045731 223.15779588 C100.36482395 206.399731 100.36805836 189.64169243 100.36001733 172.88362308 C100.35556166 162.92847413 100.35941916 152.97341008 100.37525584 143.01827229 C100.38501083 136.36472351 100.38382259 129.71123416 100.37381961 123.05768592 C100.3684313 119.26898782 100.36770536 115.48045268 100.38032833 111.69176812 C100.39383843 107.60256219 100.38394087 103.51373488 100.3719368 99.42452431 C100.38332959 97.67651806 100.38332959 97.67651806 100.39495254 95.89319855 C100.32524607 84.88157429 98.48135185 73.94073183 93.875 63.875 C93.5764209 63.21032715 93.2778418 62.5456543 92.97021484 61.86083984 C89.85392371 55.22497285 85.7129261 49.60110063 81 44 C80.31292969 43.13890625 79.62585938 42.2778125 78.91796875 41.390625 C66.14579786 26.13036888 47.58410462 16.85018533 28 14 C25.76498766 13.85886429 23.52737298 13.7554661 21.2890625 13.68359375 C20.04511719 13.64169922 18.80117188 13.59980469 17.51953125 13.55664062 C16.23433594 13.51732422 14.94914062 13.47800781 13.625 13.4375 C12.31660156 13.39431641 11.00820313 13.35113281 9.66015625 13.30664062 C6.44021884 13.20087626 3.2201227 13.09996418 0 13 C0 8.71 0 4.42 0 0 Z " fill="#FEFEFE" transform="translate(316,457)"/>
<path d="M0 0 C100.65 0 201.3 0 305 0 C305 5.28 305 10.56 305 16 C303.81148437 16.03738281 302.62296875 16.07476562 301.3984375 16.11328125 C264.71905447 17.42981186 264.71905447 17.42981186 233 34 C221.55317763 48.68334596 219.69075058 64.81715458 219.75949097 82.76773071 C219.75861788 84.46753007 219.756865 86.16732916 219.75431263 87.86712682 C219.7498554 92.51921337 219.7578204 97.17120726 219.76786876 101.823282 C219.77652442 106.84701129 219.7735816 111.87073557 219.77206421 116.89447021 C219.7710167 125.59220233 219.77727933 134.28990438 219.78853989 142.98762894 C219.80481003 155.56299751 219.81000445 168.13835159 219.81251587 180.71372955 C219.81689059 201.11759225 219.83019366 221.52143895 219.84912109 241.92529297 C219.86748565 261.74300049 219.88163934 281.56070366 219.89013672 301.37841797 C219.89092489 303.2114794 219.89092489 303.2114794 219.89172898 305.08157237 C219.8943391 311.21233521 219.89686651 317.34309808 219.89935279 323.47386098 C219.92007835 374.31591838 219.95529783 425.15795841 220 476 C221.92641579 473.9185528 223.85208909 471.83642699 225.77734375 469.75390625 C226.31983765 469.16790649 226.86233154 468.58190674 227.42126465 467.97814941 C230.72873606 464.39914101 233.97256627 460.77622532 237.16015625 457.08984375 C239.56670191 454.35629401 242.03304949 451.67887646 244.5 449 C248.12092721 445.06717596 251.68958986 441.09785918 255.19140625 437.05859375 C258.2777948 433.54557698 261.44628778 430.10700182 264.59765625 426.65234375 C266.56941844 424.47539004 268.51365337 422.28161326 270.4375 420.0625 C273.86768576 416.11332633 277.41003518 412.26977695 280.95288086 408.42211914 C283.50540453 405.6452363 286.02975746 402.85027985 288.5 400 C291.4384401 396.6094922 294.46114142 393.3003097 297.5 390 C301.12090134 386.06715159 304.68958925 382.09785988 308.19140625 378.05859375 C311.2777948 374.54557698 314.44628778 371.10700182 317.59765625 367.65234375 C319.56941844 365.47539004 321.51365337 363.28161326 323.4375 361.0625 C326.86768576 357.11332633 330.41003518 353.26977695 333.95288086 349.42211914 C336.50540453 346.6452363 339.02975746 343.85027985 341.5 341 C344.4384401 337.6094922 347.46114142 334.3003097 350.5 331 C354.12090134 327.06715159 357.68958925 323.09785988 361.19140625 319.05859375 C364.2777948 315.54557698 367.44628778 312.10700182 370.59765625 308.65234375 C372.56941844 306.47539004 374.51365337 304.28161326 376.4375 302.0625 C379.86768576 298.11332633 383.41003518 294.26977695 386.95288086 290.42211914 C389.50540453 287.6452363 392.02975746 284.85027985 394.5 282 C397.4384401 278.6094922 400.46114142 275.3003097 403.5 272 C407.12090134 268.06715159 410.68958925 264.09785988 414.19140625 260.05859375 C417.2777948 256.54557698 420.44628778 253.10700182 423.59765625 249.65234375 C425.56941844 247.47539004 427.51365337 245.28161326 429.4375 243.0625 C432.86768576 239.11332633 436.41003518 235.26977695 439.95288086 231.42211914 C442.50540453 228.6452363 445.02975746 225.85027985 447.5 223 C450.4384401 219.6094922 453.46114142 216.3003097 456.5 213 C460.12090134 209.06715159 463.68958925 205.09785988 467.19140625 201.05859375 C470.2777948 197.54557698 473.44628778 194.10700182 476.59765625 190.65234375 C478.56941844 188.47539004 480.51365337 186.28161326 482.4375 184.0625 C485.86768576 180.11332633 489.41003518 176.26977695 492.95288086 172.42211914 C495.50540453 169.6452363 498.02975746 166.85027985 500.5 164 C503.4384401 160.6094922 506.46114142 157.3003097 509.5 154 C513.12090134 150.06715159 516.68958925 146.09785988 520.19140625 142.05859375 C523.2777948 138.54557698 526.44628778 135.10700182 529.59765625 131.65234375 C531.56941844 129.47539004 533.51365337 127.28161326 535.4375 125.0625 C538.86768576 121.11332633 542.41003518 117.26977695 545.95288086 113.42211914 C548.50540453 110.6452363 551.02975746 107.85027985 553.5 105 C556.4384401 101.6094922 559.46114142 98.3003097 562.5 95 C566.12542178 91.0622417 569.70406326 87.09310921 573.19921875 83.0390625 C574.5499043 81.50965284 575.93321192 80.00895083 577.33203125 78.5234375 C586.87465492 68.35050228 598.76727683 55.33129396 599.625 40.75 C599.30271398 35.66593801 597.79584305 32.40226486 594 29 C572.93089171 13.22077512 535.83493935 16.66600402 511 16 C511 11.05 511 6.1 511 1 C588.55 1 666.1 1 746 1 C746 5.95 746 10.9 746 16 C744.30194214 16.06731323 744.30194214 16.06731323 742.56958008 16.13598633 C692.85380779 18.14749199 650.93752503 23.67962421 614 60 C612.87514593 61.08608866 611.75014327 62.17202344 610.625 63.2578125 C604.78221327 68.94907905 599.38967039 74.77580715 594.31640625 81.17578125 C590.66476349 85.62795277 586.71141078 89.79095941 582.78515625 94 C580.02403653 96.96144168 577.34945349 99.98985638 574.69921875 103.05078125 C570.4253204 107.95348303 566.03080529 112.75112166 561.671875 117.578125 C557.68295423 122.00121401 553.72432093 126.44615005 549.8125 130.9375 C546.9673071 134.1751333 544.07146164 137.3668629 541.18359375 140.56640625 C539.29151315 142.67511146 537.42094242 144.79919801 535.5625 146.9375 C531.91062947 151.13164365 528.15733816 155.23094292 524.41015625 159.33984375 C521.83006864 162.18755795 519.29798144 165.07244018 516.77734375 167.97265625 C513.94688384 171.20124678 511.06038793 174.37913175 508.18359375 177.56640625 C506.29151315 179.67511146 504.42094242 181.79919801 502.5625 183.9375 C498.91062947 188.13164365 495.15733816 192.23094292 491.41015625 196.33984375 C488.83006864 199.18755795 486.29798144 202.07244018 483.77734375 204.97265625 C480.94688384 208.20124678 478.06038793 211.37913175 475.18359375 214.56640625 C473.29151315 216.67511146 471.42094242 218.79919801 469.5625 220.9375 C465.91062947 225.13164365 462.15733816 229.23094292 458.41015625 233.33984375 C455.83006864 236.18755795 453.29798144 239.07244018 450.77734375 241.97265625 C447.94688384 245.20124678 445.06038793 248.37913175 442.18359375 251.56640625 C440.29151315 253.67511146 438.42094242 255.79919801 436.5625 257.9375 C432.91062947 262.13164365 429.15733816 266.23094292 425.41015625 270.33984375 C422.83006864 273.18755795 420.29798144 276.07244018 417.77734375 278.97265625 C414.94688384 282.20124678 412.06038793 285.37913175 409.18359375 288.56640625 C407.29151315 290.67511146 405.42094242 292.79919801 403.5625 294.9375 C399.91062947 299.13164365 396.15733816 303.23094292 392.41015625 307.33984375 C389.83006864 310.18755795 387.29798144 313.07244018 384.77734375 315.97265625 C381.94688384 319.20124678 379.06038793 322.37913175 376.18359375 325.56640625 C374.29151315 327.67511146 372.42094242 329.79919801 370.5625 331.9375 C366.91062947 336.13164365 363.15733816 340.23094292 359.41015625 344.33984375 C356.83006864 347.18755795 354.29798144 350.07244018 351.77734375 352.97265625 C348.94688384 356.20124678 346.06038793 359.37913175 343.18359375 362.56640625 C341.29151315 364.67511146 339.42094242 366.79919801 337.5625 368.9375 C333.91062947 373.13164365 330.15733816 377.23094292 326.41015625 381.33984375 C323.83006864 384.18755795 321.29798144 387.07244018 318.77734375 389.97265625 C315.94688384 393.20124678 313.06038793 396.37913175 310.18359375 399.56640625 C308.29151315 401.67511146 306.42094242 403.79919801 304.5625 405.9375 C300.92213009 410.11843528 297.18106773 414.20515969 293.4453125 418.30078125 C290.25051827 421.82730331 287.11363751 425.40178976 284 429 C288.53144237 441.69291116 297.67409444 452.59632739 306.60546875 462.44970703 C307.88485972 463.87199916 309.13168916 465.32340623 310.375 466.77734375 C315.70739808 472.95721224 321.56061276 478.00438184 328 483 C328.84433594 483.70640625 329.68867187 484.4128125 330.55859375 485.140625 C356.21273057 505.84265703 388.02694471 514.91837055 420.6328125 511.74365234 C436.28187655 509.74863596 452.63518972 504.08385099 464.30859375 493.1171875 C466 492 466 492 467.95458984 492.24658203 C471.50980509 493.55613016 473.15154049 496.9625329 475.1875 500 C475.69724365 500.74113037 476.2069873 501.48226074 476.73217773 502.24584961 C478.49974168 504.82281718 480.24977856 507.41122599 482 510 C483.39250018 512.0434657 484.78576143 514.08641294 486.1796875 516.12890625 C489.11150765 520.42952261 492.03677084 524.73449524 494.95703125 529.04296875 C498.20433535 533.83215825 501.46698053 538.61023664 504.75 543.375 C508.67772439 549.07581565 512.59274111 554.78513477 516.5 560.5 C522.31918326 569.00976417 528.15574883 577.50743882 534 586 C540.39969408 595.29970186 546.7868389 604.60779944 553.15917969 613.92626953 C558.42615184 621.62667659 563.71119245 629.31458053 569 637 C575.40119079 646.3018768 581.79003837 655.61200944 588.16357422 664.93286133 C591.60197218 669.96013108 595.04732974 674.98252305 598.5 680 C602.50958738 685.82679803 606.50760903 691.66140652 610.5 697.5 C616.31924338 706.00972322 622.15574869 714.50743862 628 723 C634.40119079 732.3018768 640.79003837 741.61200944 647.16357422 750.93286133 C650.60197218 755.96013108 654.04732974 760.98252305 657.5 766 C661.50958794 771.82679885 665.50733575 777.66159281 669.5 783.5 C670.60154964 785.1093838 671.70311203 786.71875888 672.8046875 788.328125 C674.8345976 791.29425943 676.86048024 794.26306996 678.8828125 797.234375 C703.46008548 833.28422525 730.79721374 865.83272824 775.70703125 875.07421875 C783.37054739 876.49632915 791.08761126 877.25316123 798.85449219 877.83691406 C801.82319405 878.06257324 804.78604378 878.34452332 807.75 878.625 C809.1525 878.74875 810.555 878.8725 812 879 C812 884.28 812 889.56 812 895 C792.93551933 895.06978071 773.87107535 895.12315339 754.80649281 895.15543652 C745.95224949 895.170832 737.09808754 895.19177945 728.24389648 895.22631836 C720.51651994 895.25644707 712.78920238 895.275628 705.06176871 895.28226548 C700.9792793 895.28613849 696.89695846 895.29508288 692.8145237 895.31719017 C647.76826911 895.55137293 606.49940629 887.63600884 571 858 C570.44006348 857.54012695 569.88012695 857.08025391 569.30322266 856.60644531 C556.60200667 846.15244921 545.20952924 834.91404029 535 822 C534.00791091 820.7946455 533.01293024 819.59166725 532.015625 818.390625 C523.8851991 808.57196112 516.35568184 798.40799302 509 788 C508.00271699 786.594972 507.00532341 785.19002247 506.0078125 783.78515625 C502.99324324 779.53181862 499.99501963 775.26711772 497 771 C496.43635742 770.19771973 495.87271484 769.39543945 495.29199219 768.56884766 C488.92452031 759.50284752 482.58146793 750.42151454 476.31958008 741.28222656 C472.28361111 735.39713753 468.20508624 729.5420602 464.125 723.6875 C457.52217968 714.20952163 450.98021908 704.69175914 444.46875 695.15087891 C437.73812728 685.29436524 430.94763418 675.48052725 424.125 665.6875 C417.52233814 656.20941005 410.98022019 646.69176077 404.46875 637.15087891 C397.73812728 627.29436524 390.94763418 617.48052725 384.125 607.6875 C377.52233814 598.20941005 370.98022019 588.69176077 364.46875 579.15087891 C357.78044832 569.35634138 351.03215764 559.60475965 344.25 549.875 C338.3287109 541.37902439 332.47059354 532.84271425 326.64990234 524.27758789 C321.43726266 516.61729176 316.15083289 509.0099282 310.85083008 501.40991211 C306.60168057 495.31303504 302.37923768 489.19898781 298.1875 483.0625 C297.65970947 482.28986816 297.13191895 481.51723633 296.58813477 480.72119141 C295.55696931 479.21104646 294.52595969 477.7007951 293.49511719 476.19042969 C286.1125859 465.37461147 278.6539763 454.6259107 271 444 C262.25721092 450.99423126 255.05128627 459.58375582 247.734375 468.015625 C244.20499911 472.05373976 240.59397625 476.01944479 237 480 C235.47874299 481.68711808 233.95790543 483.37461446 232.4375 485.0625 C231.77621094 485.79597656 231.11492187 486.52945312 230.43359375 487.28515625 C229.63050781 488.18105469 228.82742188 489.07695313 228 490 C227.35554703 490.58156217 226.71109407 491.16312434 226.04711223 491.76230961 C221.70919303 495.96147734 219.48426829 499.07510723 219.00444412 505.1796484 C218.96585854 507.59056279 218.97097241 510.00242472 219.01104736 512.41331482 C219.0046851 513.76120865 218.99482083 515.10908968 218.98178172 516.45693547 C218.95624286 520.14219574 218.98030383 523.82568536 219.01283884 527.51082838 C219.03924356 531.4927017 219.01933152 535.47438475 219.00531006 539.45628357 C218.98517307 547.25189297 219.00767242 555.04682194 219.04471126 562.84234678 C219.08634604 571.93409859 219.08596369 581.02570508 219.08402094 590.11753429 C219.08201932 606.35413399 219.11863071 622.59041842 219.17675781 638.8269043 C219.23302173 654.55124663 219.26144432 670.27531143 219.25878906 685.99975586 C219.25862924 686.96694864 219.25846941 687.93414142 219.25830474 688.93064307 C219.25814333 689.89622373 219.25798191 690.86180438 219.2578156 691.85664505 C219.25504763 709.79068039 219.27867642 727.72459861 219.31442846 745.65859584 C219.32644248 751.98162896 219.33074068 758.30464037 219.33255768 764.62768364 C219.33530198 772.35064451 219.3533753 780.07340815 219.38988891 787.7962855 C219.40821329 791.72968874 219.42059856 795.66284186 219.41551208 799.59629059 C219.39361691 821.58504918 219.67674846 841.36764767 232.1875 860.3125 C251.54474108 878.80941925 279.98176863 878.20775601 305 879 C305 884.28 305 889.56 305 895 C204.35 895 103.7 895 0 895 C0 889.72 0 884.44 0 879 C1.34449219 878.96261719 2.68898438 878.92523437 4.07421875 878.88671875 C41.03845166 877.72192069 41.03845166 877.72192069 71.75 859.1875 C81.20502998 845.79287419 83.15735486 831.38396076 83.12584114 815.40227413 C83.1280213 813.48689966 83.1280213 813.48689966 83.13024551 811.53283074 C83.13414142 807.98414246 83.13180858 804.43548137 83.12846755 800.88679353 C83.12593262 797.02758769 83.12919009 793.16838604 83.13171089 789.3091808 C83.13532526 782.54375685 83.13521135 775.77834088 83.13266373 769.01291656 C83.1288855 758.95221287 83.13081282 748.89151592 83.13387203 738.83081227 C83.13914242 720.86173774 83.13867943 702.89266676 83.13579312 684.92359189 C83.13327897 669.19431603 83.1326202 653.46504147 83.13381577 637.73576546 C83.13389215 636.69297291 83.13396854 635.65018036 83.13404724 634.57578804 C83.13435857 630.34282632 83.13467697 626.10986461 83.135007 621.87690289 C83.13806753 582.1490914 83.13529039 542.42128216 83.1299101 502.69347102 C83.12516678 467.40070798 83.1255869 432.10794855 83.13037109 396.81518555 C83.13572714 357.17125473 83.13784805 317.52732591 83.13475883 277.88339478 C83.13443811 273.65591149 83.13412527 269.42842819 83.13381577 265.2009449 C83.13369715 263.63955584 83.13369715 263.63955584 83.13357614 262.04662357 C83.13243901 246.33241176 83.13376836 230.6182014 83.13629532 214.90398979 C83.13915533 197.02945976 83.13843824 179.15493384 83.13301457 161.28040432 C83.13007977 151.2786115 83.12988447 141.27682758 83.13366075 131.27503499 C83.13590598 124.59049901 83.13450239 117.90597015 83.13015598 111.22143522 C83.12778164 107.41513443 83.12695463 103.6088513 83.13056196 99.80255108 C83.13441538 95.69455741 83.13048007 91.58660671 83.12584114 87.47861385 C83.12818231 86.30771651 83.13052347 85.13681917 83.13293558 83.9304401 C83.09303931 66.23397888 82.26584865 47.7295341 70 33.71484375 C54.67487254 19.07387376 30.16246387 17.29604057 9.9375 16.4375 C8.49600586 16.37272461 8.49600586 16.37272461 7.02539062 16.30664062 C4.68371037 16.20178927 2.34187024 16.10051863 0 16 C0 10.72 0 5.44 0 0 Z " fill="#FEFEFE" transform="translate(886,464)"/>
<path d="M0 0 C2.92948169 2.92948169 5.81633451 5.83153145 8.63671875 8.85546875 C9.61934692 9.90589355 9.61934692 9.90589355 10.62182617 10.97753906 C11.64433472 12.07146973 11.64433472 12.07146973 12.6875 13.1875 C18.68063369 19.57890076 24.75245272 25.85638604 31 32 C34.42193798 35.4154131 37.83185901 38.84255762 41.23828125 42.2734375 C42.7465923 43.78913247 44.2553905 45.30434063 45.7644043 46.81933594 C46.7920057 47.8519611 47.81870714 48.88548268 48.84448242 49.91992188 C54.71540954 55.83891726 60.65867146 61.580699 67 67 C68.77570221 68.61967817 70.54708307 70.24411718 72.3125 71.875 C76.77253843 75.94294714 81.35631295 79.79778936 86.0546875 83.5859375 C88.79277289 85.83015072 91.4740397 88.1249081 94.14672852 90.44580078 C99.89618606 95.43571853 105.73080637 100.19507681 111.875 104.69921875 C114.02537942 106.2824356 116.14483412 107.87921479 118.25 109.51953125 C138.00045918 124.80738321 159.2785722 138.69161859 181 151 C181.88155762 151.49983398 182.76311523 151.99966797 183.67138672 152.51464844 C237.68493073 182.89667687 294.91865293 203.22568264 356 214 C357.11729492 214.19722656 358.23458984 214.39445312 359.38574219 214.59765625 C377.50434143 217.72967159 395.69233828 219.45360742 414 221 C415.03189453 221.0935376 416.06378906 221.1870752 417.12695312 221.28344727 C424.66256782 221.95431593 432.18994449 222.30166098 439.75 222.5625 C440.9359375 222.60568359 442.121875 222.64886719 443.34375 222.69335938 C446.22907717 222.79806883 449.11452684 222.89939374 452 223 C452 227.29 452 231.58 452 236 C420.65883601 252.52275866 386.23525354 265.76522256 351.60180664 273.4074707 C348.72846442 274.06183887 345.87800427 274.78774952 343.0234375 275.51953125 C337.44443725 276.92446034 331.85102494 278.05828524 326.1875 279.0625 C324.77343872 279.31737183 324.77343872 279.31737183 323.33081055 279.57739258 C316.50772211 280.78645197 309.68090172 281.78658901 302.80078125 282.60546875 C299.92532067 282.92444493 299.92532067 282.92444493 297 284 C250.43451975 290.5401878 201.52503047 288.84694235 155 283 C153.06133057 282.75975098 153.06133057 282.75975098 151.08349609 282.51464844 C105.54289707 276.65009009 60.96191957 263.49323743 19 245 C18.01193359 244.56574707 17.02386719 244.13149414 16.00585938 243.68408203 C-13.98503044 230.41888077 -43.08818389 214.80110026 -70 196 C-70.65548828 195.54737793 -71.31097656 195.09475586 -71.98632812 194.62841797 C-104.75719792 171.99326303 -134.89292815 146.32682 -162.99169922 118.13867188 C-165.023262 116.10167579 -167.06021836 114.07018049 -169.09765625 112.0390625 C-170.41959207 110.71646683 -171.74121817 109.39356151 -173.0625 108.0703125 C-173.65740234 107.47743439 -174.25230469 106.88455627 -174.86523438 106.27371216 C-178.55235444 102.56626253 -182.04772164 98.73421075 -185.46316528 94.77494812 C-187.54965694 92.36518056 -189.71217272 90.02874232 -191.875 87.6875 C-196.79618347 82.28529859 -201.41501653 76.68770102 -206 71 C-207.00934094 69.76994984 -208.01982598 68.5408379 -209.03125 67.3125 C-214.71765393 60.39144652 -220.29643953 53.40432991 -225.6875 46.25 C-226.1925708 45.58266846 -226.6976416 44.91533691 -227.21801758 44.2277832 C-227.68618896 43.600896 -228.15436035 42.97400879 -228.63671875 42.328125 C-229.25099731 41.50683105 -229.25099731 41.50683105 -229.87768555 40.66894531 C-231 39 -231 39 -233 35 C-156.11 35 -79.22 35 0 35 C0 23.45 0 11.9 0 0 Z " fill="#FEFEFE" transform="translate(1231,1364)"/>
<path d="M0 0 C3.80943338 3.65842882 7.09418074 7.50529239 10.3125 11.6875 C11.28482935 12.9377543 12.25748741 14.18775303 13.23046875 15.4375 C13.93888916 16.35015625 13.93888916 16.35015625 14.66162109 17.28125 C16.46523082 19.59745074 18.29159929 21.89483058 20.125 24.1875 C20.74632812 24.96480469 21.36765625 25.74210937 22.0078125 26.54296875 C23.48871855 28.36941955 24.98617191 30.18247885 26.4921875 31.98828125 C27.31976562 32.98214844 28.14734375 33.97601562 29 35 C29.763125 35.9075 30.52625 36.815 31.3125 37.75 C33 40 33 40 33 42 C23.4575702 42.39576898 11.0039708 42.75426714 3 37 C-1.27502204 30.02342258 -0.34397607 21.2813647 -0.1875 13.4375 C-0.17396484 12.14263672 -0.16042969 10.84777344 -0.14648438 9.51367188 C-0.1113737 6.34200786 -0.06219347 3.1712291 0 0 Z " fill="#F8F8F8" transform="translate(1145,1261)"/>
</svg>
